<?xml version="1.0" standalone="no"?>
<!DOCTYPE svg PUBLIC "-//W3C//DTD SVG 20010904//EN"
 "http://www.w3.org/TR/2001/REC-SVG-20010904/DTD/svg10.dtd">
<svg version="1.0" xmlns="http://www.w3.org/2000/svg"
 width="160.000000pt" height="100.000000pt" viewBox="0 0 160.000000 100.000000"
 preserveAspectRatio="xMidYMid meet">
<metadata>
Created by potrace 1.11, written by Peter Selinger 2001-2013
</metadata>
<g transform="translate(0.000000,100.000000) scale(0.100000,-0.100000)"
fill="#000000" stroke="none">
<path d="M183 974 c-16 -7 -84 -107 -116 -171 -14 -27 -33 -55 -41 -62 -43
-36 3 -111 67 -111 17 0 38 -6 46 -14 20 -18 115 -46 156 -46 26 0 35 -7 63
-52 17 -29 36 -67 43 -85 6 -18 18 -35 28 -38 9 -3 24 -18 33 -33 10 -16 35
-41 58 -57 22 -15 40 -36 40 -45 0 -10 7 -23 16 -31 15 -12 16 -36 2 -139 -2
-21 2 -26 26 -28 16 -2 33 1 39 7 6 6 21 11 33 11 13 0 25 3 28 8 2 4 -3 44
-11 88 -10 51 -13 98 -9 128 6 40 13 50 46 72 36 24 45 26 97 19 74 -9 109
-24 157 -69 21 -20 40 -35 40 -34 1 2 7 15 13 29 8 17 42 44 100 78 82 47 122
63 109 43 -8 -13 14 -86 29 -98 8 -6 22 -41 31 -78 16 -64 16 -71 0 -129 -10
-34 -26 -67 -37 -75 -10 -7 -19 -20 -19 -28 0 -19 62 -19 99 1 30 15 35 27 46
108 4 26 11 49 15 52 13 8 22 -113 10 -134 -5 -11 -10 -24 -10 -29 0 -17 32
-23 67 -11 24 8 33 16 33 33 0 12 5 27 10 32 7 7 4 38 -10 98 -11 48 -20 102
-20 122 0 19 -7 51 -16 72 -21 51 -20 98 4 157 24 58 23 62 28 -135 2 -103 8
-162 21 -202 10 -32 20 -58 23 -58 12 0 28 188 19 231 -20 100 -39 268 -39
343 0 101 -13 147 -51 191 -41 47 -93 62 -156 45 -26 -7 -115 -16 -198 -20
-82 -5 -199 -12 -258 -16 -115 -7 -292 15 -349 43 -38 19 -140 17 -175 -4 -28
-16 -32 -15 -74 5 -45 22 -63 25 -86 16z"/>
</g>
</svg>
