<?xml version="1.0" standalone="no"?>
<!DOCTYPE svg PUBLIC "-//W3C//DTD SVG 20010904//EN"
 "http://www.w3.org/TR/2001/REC-SVG-20010904/DTD/svg10.dtd">
<svg version="1.0" xmlns="http://www.w3.org/2000/svg"
 width="155.000000pt" height="75.000000pt" viewBox="0 0 155.000000 75.000000"
 preserveAspectRatio="xMidYMid meet">
<metadata>
Created by potrace 1.11, written by Peter Selinger 2001-2013
</metadata>
<g transform="translate(0.000000,75.000000) scale(0.100000,-0.100000)"
fill="#000000" stroke="none">
<path d="M769 730 c-8 -5 -46 -18 -85 -29 -308 -89 -298 -85 -359 -141 -73
-67 -113 -88 -157 -83 -34 5 -42 1 -88 -45 -53 -53 -61 -79 -32 -104 21 -18
99 -32 167 -30 63 3 115 -14 115 -36 -1 -38 -28 -129 -49 -162 -27 -44 -26
-50 2 -50 25 0 67 37 67 59 0 14 30 74 40 81 5 3 10 16 11 29 6 37 25 36 44
-1 14 -27 22 -89 25 -190 0 -14 27 -8 41 9 10 12 13 44 11 127 -1 61 -5 123
-8 138 -5 24 -1 29 33 43 21 9 48 14 61 11 12 -3 33 -9 46 -12 18 -5 26 -1 30
14 4 11 18 28 32 37 25 16 27 16 51 -7 44 -41 100 -178 87 -213 -7 -18 26 -55
48 -55 17 0 24 13 18 35 -2 6 -6 57 -11 115 -4 58 -14 148 -23 200 -8 52 -15
112 -16 133 0 22 -7 53 -16 70 -9 18 -20 39 -24 47 -8 18 -39 23 -61 10z"/>
<path d="M1275 697 c-16 -6 -49 -18 -72 -28 -34 -14 -44 -15 -53 -4 -21 26
-62 28 -93 5 -21 -16 -32 -19 -40 -11 -17 17 -77 14 -84 -4 -6 -17 23 -55 42
-55 25 0 46 -40 61 -116 17 -89 23 -256 12 -324 -21 -124 -21 -130 -1 -130 39
0 55 24 64 96 4 38 15 92 22 119 13 47 16 50 46 50 31 1 32 0 26 -36 -4 -24
-2 -46 7 -61 7 -13 15 -57 18 -98 l5 -75 30 0 c25 0 30 5 38 35 5 19 10 55 13
80 2 25 11 74 20 109 15 60 15 67 -2 103 -15 34 -16 41 -3 49 21 13 51 -25 88
-116 22 -51 30 -85 26 -103 -7 -33 33 -117 55 -117 22 0 24 43 6 113 -9 33
-16 93 -16 133 0 51 -5 77 -15 89 -21 23 -52 142 -54 205 -1 30 -70 105 -95
104 -12 -1 -34 -6 -51 -12z"/>
</g>
</svg>
