<?xml version="1.0" standalone="no"?>
<!DOCTYPE svg PUBLIC "-//W3C//DTD SVG 20010904//EN"
 "http://www.w3.org/TR/2001/REC-SVG-20010904/DTD/svg10.dtd">
<svg version="1.0" xmlns="http://www.w3.org/2000/svg"
 width="170.000000pt" height="95.000000pt" viewBox="0 0 170.000000 95.000000"
 preserveAspectRatio="xMidYMid meet">
<metadata>
Created by potrace 1.11, written by Peter Selinger 2001-2013
</metadata>
<g transform="translate(0.000000,95.000000) scale(0.100000,-0.100000)"
fill="#000000" stroke="none">
<path d="M570 929 c-30 -5 -75 -17 -100 -26 -62 -24 -191 -24 -217 0 -30 27
-67 21 -97 -14 -23 -26 -32 -30 -57 -25 -39 8 -69 -8 -69 -37 0 -23 43 -77 61
-77 19 0 0 -53 -28 -79 -20 -19 -24 -30 -19 -54 3 -16 6 -33 6 -37 0 -4 14
-13 30 -20 35 -14 97 -7 143 16 37 19 95 14 129 -12 14 -10 39 -39 57 -65 17
-26 67 -73 111 -105 73 -53 80 -61 91 -107 7 -29 9 -78 6 -117 -7 -86 6 -111
48 -92 25 12 27 16 22 55 -3 23 0 86 6 141 11 91 13 97 28 80 40 -46 102 -196
101 -242 -1 -29 2 -32 26 -32 58 0 63 25 29 150 -8 30 -20 75 -25 100 -6 25
-14 53 -17 62 -6 15 -3 16 23 9 16 -5 39 -14 50 -20 11 -6 54 -16 94 -22 66
-10 80 -9 138 11 35 12 72 27 83 35 16 11 23 11 48 -3 16 -10 29 -22 29 -29 0
-18 21 -27 30 -14 11 18 33 -136 25 -178 -4 -20 -18 -56 -31 -80 -19 -35 -22
-46 -12 -53 26 -17 62 -4 77 27 8 17 25 43 38 58 12 16 23 35 23 42 0 20 22
65 31 65 17 0 51 -97 56 -158 l6 -63 36 3 36 3 -3 78 c-2 50 0 77 7 77 6 0 11
-11 11 -25 0 -16 6 -25 15 -25 11 0 15 13 16 48 3 98 -3 189 -16 242 -8 31
-16 126 -18 220 -4 182 -15 225 -63 257 -30 19 -2 18 -624 28 -146 3 -276 6
-290 9 -14 2 -50 0 -80 -5z"/>
</g>
</svg>
