<?xml version="1.0" standalone="no"?>
<!DOCTYPE svg PUBLIC "-//W3C//DTD SVG 20010904//EN"
 "http://www.w3.org/TR/2001/REC-SVG-20010904/DTD/svg10.dtd">
<svg version="1.0" xmlns="http://www.w3.org/2000/svg"
 width="170.000000pt" height="95.000000pt" viewBox="0 0 170.000000 95.000000"
 preserveAspectRatio="xMidYMid meet">
<metadata>
Created by potrace 1.11, written by Peter Selinger 2001-2013
</metadata>
<g transform="translate(0.000000,95.000000) scale(0.100000,-0.100000)"
fill="#000000" stroke="none">
<path d="M570 929 c-30 -5 -75 -17 -100 -26 -62 -24 -191 -24 -217 0 -30 27
-67 21 -97 -14 -23 -26 -32 -30 -57 -25 -39 8 -69 -8 -69 -37 0 -23 43 -77 61
-77 19 0 0 -53 -28 -79 -20 -19 -24 -30 -19 -54 3 -16 6 -33 6 -37 0 -11 48
-30 76 -30 13 0 50 9 81 20 32 11 65 20 75 20 22 0 25 -38 3 -46 -23 -9 -20
-81 4 -94 25 -13 82 -13 115 0 23 8 36 2 110 -53 82 -60 85 -64 97 -117 6 -30
9 -82 6 -116 -7 -74 5 -99 45 -89 25 7 26 8 25 91 0 46 3 87 7 91 13 14 21
-11 24 -80 4 -105 9 -119 35 -115 20 3 22 10 25 68 2 36 7 69 11 73 11 11 35
-59 33 -94 -2 -24 2 -27 44 -33 85 -11 87 -11 81 32 -2 20 -12 68 -20 107 -17
72 -11 92 23 79 42 -16 159 -16 206 0 64 22 85 20 116 -9 45 -41 49 -140 9
-208 -14 -25 -14 -29 -1 -37 29 -18 110 7 110 34 0 6 11 24 24 41 l23 29 11
-48 c6 -27 8 -55 5 -63 -4 -9 5 -13 31 -13 l36 0 0 46 c0 27 4 43 10 39 6 -3
10 -24 10 -46 l0 -40 38 3 37 3 -3 78 c-2 50 0 77 7 77 6 0 11 -11 11 -25 0
-16 6 -25 15 -25 11 0 15 13 16 48 3 98 -3 189 -16 242 -8 31 -16 126 -18 220
-4 182 -15 225 -63 257 -30 19 -2 18 -624 28 -146 3 -276 6 -290 9 -14 2 -50
0 -80 -5z"/>
</g>
</svg>
